<svg xmlns="http://www.w3.org/2000/svg" viewBox="0 0 228 251" width="228" height="251">
  <path d="M 132.0 245.5 L 124.0 241.5 L 121.5 238.0 L 119.5 230.0 L 121.0 213.5 L 116.0 223.5 L 107.0 220.5 L 103.0 226.5 L 98.0 224.5 L 90.0 239.5 L 85.5 233.0 L 84.0 219.5 L 81.5 225.0 L 78.5 226.0 L 78.5 218.0 L 74.5 205.0 L 76.5 199.0 L 76.5 191.0 L 74.5 186.0 L 71.0 182.5 L 66.0 181.5 L 43.0 189.5 L 30.5 176.0 L 28.5 167.0 L 21.5 157.0 L 21.5 149.0 L 25.5 142.0 L 22.5 139.0 L 22.5 135.0 L 25.5 129.0 L 19.5 122.0 L 21.5 117.0 L 21.5 109.0 L 17.5 99.0 L 23.5 93.0 L 16.5 97.0 L 13.5 82.0 L 14.5 68.0 L 19.5 52.0 L 31.5 33.0 L 52.0 15.5 L 77.0 5.5 L 98.0 0.5 L 118.0 1.5 L 137.5 11.0 L 130.5 18.0 L 126.5 32.0 L 112.5 40.0 L 112.0 53.5 L 115.5 40.0 L 123.0 38.5 L 127.5 35.0 L 133.5 18.0 L 140.0 12.5 L 155.0 20.5 L 166.5 31.0 L 174.5 48.0 L 175.5 66.0 L 179.5 74.0 L 180.5 87.0 L 195.5 112.0 L 191.5 144.0 L 185.0 148.5 L 169.0 149.5 L 162.5 158.0 L 163.5 169.0 L 171.5 180.0 L 171.5 186.0 L 176.5 193.0 L 178.5 204.0 L 169.5 200.0 L 172.5 209.0 L 166.0 217.5 L 162.5 205.0 L 160.5 204.0 L 158.5 210.0 L 159.5 222.0 L 151.0 232.5 L 148.5 229.0 L 147.5 216.0 L 145.0 218.5 L 139.0 218.5 L 136.5 224.0 L 133.5 225.0 L 134.5 237.0 L 132.0 245.5 Z M 155.5 129.0 L 170.0 124.5 L 176.5 116.0 L 177.5 108.0 L 173.5 86.0 L 169.0 83.5 L 160.0 83.5 L 154.0 80.5 L 136.0 91.5 L 121.5 75.0 L 112.5 56.0 L 104.5 52.0 L 90.5 21.0 L 83.0 13.5 L 74.0 9.5 L 90.5 25.0 L 102.5 52.0 L 113.5 61.0 L 121.5 78.0 L 135.5 92.0 L 128.5 104.0 L 130.5 122.0 L 138.0 128.5 L 155.5 129.0 Z M 59.5 150.0 L 70.0 148.5 L 85.0 139.5 L 89.5 133.0 L 89.5 122.0 L 86.5 112.0 L 80.0 104.5 L 73.0 101.5 L 61.0 102.5 L 42.0 108.5 L 36.0 111.5 L 31.5 118.0 L 31.5 123.0 L 37.5 132.0 L 38.5 142.0 L 55.0 150.5 L 59.5 150.0 Z M 110.5 187.0 L 118.5 185.0 L 118.5 174.0 L 121.0 169.5 L 124.5 171.0 L 128.5 182.0 L 134.0 182.5 L 138.5 178.0 L 141.5 168.0 L 145.5 166.0 L 139.5 161.0 L 139.5 156.0 L 133.5 152.0 L 126.5 142.0 L 118.0 124.5 L 114.0 131.5 L 104.5 131.0 L 103.5 148.0 L 99.5 149.0 L 98.5 157.0 L 98.5 173.0 L 103.5 179.0 L 105.5 185.0 L 108.0 187.5 L 110.5 187.0 Z" fill="#231f20" fill-rule="evenodd"/>
</svg>
